<svg width="358" height="424" viewBox="0 0 358 424" fill="none" xmlns="http://www.w3.org/2000/svg">
<g filter="url(#filter0_d)">
<path fill-rule="evenodd" clip-rule="evenodd" d="M11 55.8822H348V370.948V404.543V410C348 414.418 344.418 418 340 418H19C14.5817 418 11 414.418 11 410V404.543V370.948V55.8822Z" fill="#04294F"/>
<path fill-rule="evenodd" clip-rule="evenodd" d="M126.104 14C130.523 14 134.104 17.5817 134.104 22V43.5815V50.8822V58.8822H126.104H17.9997H9.99969V50.8822V43.5815V22C9.99969 17.5817 13.5814 14 17.9997 14H126.104Z" fill="#FFB400"/>
<path d="M35.6633 30.94C36.7433 30.94 37.6913 31.126 38.5073 31.498C39.3233 31.87 40.0193 32.422 40.5953 33.154L39.2093 34.756C38.7173 34.132 38.1773 33.676 37.5893 33.388C37.0133 33.088 36.3413 32.938 35.5733 32.938C34.8053 32.938 34.2473 33.082 33.8993 33.37C33.5513 33.646 33.3773 33.982 33.3773 34.378C33.3773 34.702 33.4973 34.978 33.7373 35.206C33.9893 35.422 34.4273 35.602 35.0513 35.746L37.2653 36.25C38.4293 36.514 39.2693 36.91 39.7853 37.438C40.3013 37.954 40.5593 38.626 40.5593 39.454C40.5593 40.234 40.3553 40.906 39.9473 41.47C39.5393 42.022 38.9693 42.448 38.2373 42.748C37.5053 43.036 36.6653 43.18 35.7173 43.18C34.4813 43.18 33.3953 42.964 32.4593 42.532C31.5233 42.1 30.7853 41.542 30.2453 40.858L31.6493 39.184C32.0573 39.76 32.6153 40.24 33.3233 40.624C34.0433 40.996 34.8413 41.182 35.7173 41.182C36.4493 41.182 37.0133 41.062 37.4093 40.822C37.8053 40.57 38.0033 40.216 38.0033 39.76C38.0033 39.46 37.8953 39.196 37.6793 38.968C37.4753 38.74 37.0913 38.566 36.5273 38.446L34.1153 37.906C33.0593 37.678 32.2433 37.306 31.6673 36.79C31.0913 36.274 30.8033 35.572 30.8033 34.684C30.8033 33.976 30.9953 33.34 31.3793 32.776C31.7633 32.212 32.3153 31.768 33.0353 31.444C33.7673 31.108 34.6433 30.94 35.6633 30.94ZM45.7366 43.18C45.1366 43.18 44.5966 43.072 44.1166 42.856C43.6366 42.64 43.2526 42.298 42.9646 41.83C42.6886 41.362 42.5506 40.744 42.5506 39.976V34H45.0166V39.382C45.0166 40.078 45.1606 40.564 45.4486 40.84C45.7366 41.104 46.1506 41.236 46.6906 41.236C47.2066 41.236 47.6626 41.05 48.0586 40.678C48.4666 40.294 48.6706 39.682 48.6706 38.842V34H51.1366V43H48.9406L48.8506 41.434C48.5506 42.022 48.1366 42.46 47.6086 42.748C47.0806 43.036 46.4566 43.18 45.7366 43.18ZM53.7315 43V34H55.9455L56.0355 35.62C56.3355 35.02 56.7435 34.57 57.2595 34.27C57.7875 33.97 58.3695 33.82 59.0055 33.82C59.6535 33.82 60.2355 33.97 60.7515 34.27C61.2795 34.558 61.6755 35.002 61.9395 35.602C62.2155 35.002 62.6415 34.558 63.2175 34.27C63.7935 33.97 64.3875 33.82 64.9995 33.82C65.5875 33.82 66.1215 33.94 66.6015 34.18C67.0935 34.42 67.4835 34.78 67.7715 35.26C68.0595 35.74 68.2035 36.352 68.2035 37.096V43H65.7375V37.582C65.7375 36.922 65.5875 36.454 65.2875 36.178C64.9995 35.902 64.6335 35.764 64.1895 35.764C63.6375 35.764 63.1695 35.968 62.7855 36.376C62.4015 36.772 62.2095 37.366 62.2095 38.158V43H59.7435V37.582C59.7435 36.922 59.5935 36.454 59.2935 36.178C59.0055 35.902 58.6335 35.764 58.1775 35.764C57.8655 35.764 57.5535 35.848 57.2415 36.016C56.9415 36.184 56.6895 36.448 56.4855 36.808C56.2935 37.168 56.1975 37.642 56.1975 38.23V43H53.7315ZM70.7472 43V34H72.9612L73.0512 35.62C73.3512 35.02 73.7592 34.57 74.2752 34.27C74.8032 33.97 75.3852 33.82 76.0212 33.82C76.6692 33.82 77.2512 33.97 77.7672 34.27C78.2952 34.558 78.6912 35.002 78.9552 35.602C79.2312 35.002 79.6572 34.558 80.2332 34.27C80.8092 33.97 81.4032 33.82 82.0152 33.82C82.6032 33.82 83.1372 33.94 83.6172 34.18C84.1092 34.42 84.4992 34.78 84.7872 35.26C85.0752 35.74 85.2192 36.352 85.2192 37.096V43H82.7532V37.582C82.7532 36.922 82.6032 36.454 82.3032 36.178C82.0152 35.902 81.6492 35.764 81.2052 35.764C80.6532 35.764 80.1852 35.968 79.8012 36.376C79.4172 36.772 79.2252 37.366 79.2252 38.158V43H76.7592V37.582C76.7592 36.922 76.6092 36.454 76.3092 36.178C76.0212 35.902 75.6492 35.764 75.1932 35.764C74.8812 35.764 74.5692 35.848 74.2572 36.016C73.9572 36.184 73.7052 36.448 73.5012 36.808C73.3092 37.168 73.2132 37.642 73.2132 38.23V43H70.7472ZM92.8928 37.258C92.8928 36.742 92.7428 36.34 92.4428 36.052C92.1548 35.764 91.7708 35.62 91.2908 35.62C90.8468 35.62 90.4568 35.734 90.1208 35.962C89.7848 36.19 89.5388 36.568 89.3828 37.096L87.2768 36.448C87.4808 35.656 87.9248 35.02 88.6088 34.54C89.3048 34.06 90.2348 33.82 91.3988 33.82C92.5748 33.82 93.5228 34.102 94.2428 34.666C94.9748 35.218 95.3408 36.046 95.3408 37.15V40.804C95.3408 41.26 95.5568 41.488 95.9888 41.488C96.1928 41.488 96.3848 41.458 96.5648 41.398L96.4208 42.928C96.1088 43.084 95.7188 43.162 95.2508 43.162C94.7348 43.162 94.2848 43.054 93.9008 42.838C93.5288 42.622 93.2768 42.298 93.1448 41.866C92.8568 42.298 92.4428 42.628 91.9028 42.856C91.3748 43.072 90.8288 43.18 90.2648 43.18C89.3528 43.18 88.6268 42.976 88.0868 42.568C87.5588 42.148 87.2948 41.542 87.2948 40.75C87.2948 40.078 87.5108 39.532 87.9428 39.112C88.3748 38.68 88.9928 38.386 89.7968 38.23L92.8928 37.6V37.258ZM89.7608 40.516C89.7608 40.816 89.8688 41.044 90.0848 41.2C90.3128 41.356 90.5828 41.434 90.8948 41.434C91.2428 41.434 91.5668 41.38 91.8668 41.272C92.1668 41.164 92.4128 40.984 92.6048 40.732C92.7968 40.468 92.8928 40.12 92.8928 39.688V39.13L91.0028 39.508C90.5948 39.592 90.2828 39.706 90.0668 39.85C89.8628 39.982 89.7608 40.204 89.7608 40.516ZM98.0987 43V34H100.241L100.403 35.764C100.631 35.152 100.973 34.678 101.429 34.342C101.897 33.994 102.485 33.82 103.193 33.82C103.613 33.82 103.937 33.886 104.165 34.018L103.877 36.088C103.757 36.052 103.607 36.022 103.427 35.998C103.259 35.962 103.037 35.944 102.761 35.944C102.389 35.944 102.035 36.034 101.699 36.214C101.375 36.382 101.105 36.646 100.889 37.006C100.673 37.354 100.565 37.798 100.565 38.338V43H98.0987ZM114.152 34L110.516 43.558C110.228 44.374 109.904 45.022 109.544 45.502C109.196 45.994 108.788 46.342 108.32 46.546C107.864 46.762 107.318 46.87 106.682 46.87C106.214 46.87 105.782 46.816 105.386 46.708C105.002 46.6 104.666 46.45 104.378 46.258L104.9 44.476C105.32 44.812 105.848 44.98 106.484 44.98C106.832 44.98 107.126 44.908 107.366 44.764C107.606 44.62 107.81 44.332 107.978 43.9L108.284 43.126L107.294 40.786L104.54 34H107.276L108.986 39.4L109.454 41.2L110.012 39.292L111.65 34H114.152Z" fill="#04294F"/>
</g>
<defs>
<filter id="filter0_d" x="-0.000488281" y="-3" width="358" height="427" filterUnits="userSpaceOnUse" color-interpolation-filters="sRGB">
<feFlood flood-opacity="0" result="BackgroundImageFix"/>
<feColorMatrix in="SourceAlpha" type="matrix" values="0 0 0 0 0 0 0 0 0 0 0 0 0 0 0 0 0 0 127 0"/>
<feOffset dy="-4"/>
<feGaussianBlur stdDeviation="5"/>
<feColorMatrix type="matrix" values="0 0 0 0 0 0 0 0 0 0 0 0 0 0 0 0 0 0 0.25 0"/>
<feBlend mode="normal" in2="BackgroundImageFix" result="effect1_dropShadow"/>
<feBlend mode="normal" in="SourceGraphic" in2="effect1_dropShadow" result="shape"/>
</filter>
</defs>
</svg>
