<svg width="359" height="573" viewBox="0 0 359 573" fill="none" xmlns="http://www.w3.org/2000/svg">
<g filter="url(#filter0_d)">
<path fill-rule="evenodd" clip-rule="evenodd" d="M11 58.8822H348V373.948V407.543V413C348 417.418 344.418 421 340 421H19C14.5817 421 11 417.418 11 413V407.543V373.948V58.8822Z" fill="#04294F"/>
<path fill-rule="evenodd" clip-rule="evenodd" d="M126.104 17C130.523 17 134.104 20.5817 134.104 25V46.5815V53.8822V61.8822H126.104H17.9997H9.99969V53.8822V46.5815V25C9.99969 20.5817 13.5814 17 17.9997 17H126.104Z" fill="#04294F"/>
<path d="M35.6633 33.94C36.7433 33.94 37.6913 34.126 38.5073 34.498C39.3233 34.87 40.0193 35.422 40.5953 36.154L39.2093 37.756C38.7173 37.132 38.1773 36.676 37.5893 36.388C37.0133 36.088 36.3413 35.938 35.5733 35.938C34.8053 35.938 34.2473 36.082 33.8993 36.37C33.5513 36.646 33.3773 36.982 33.3773 37.378C33.3773 37.702 33.4973 37.978 33.7373 38.206C33.9893 38.422 34.4273 38.602 35.0513 38.746L37.2653 39.25C38.4293 39.514 39.2693 39.91 39.7853 40.438C40.3013 40.954 40.5593 41.626 40.5593 42.454C40.5593 43.234 40.3553 43.906 39.9473 44.47C39.5393 45.022 38.9693 45.448 38.2373 45.748C37.5053 46.036 36.6653 46.18 35.7173 46.18C34.4813 46.18 33.3953 45.964 32.4593 45.532C31.5233 45.1 30.7853 44.542 30.2453 43.858L31.6493 42.184C32.0573 42.76 32.6153 43.24 33.3233 43.624C34.0433 43.996 34.8413 44.182 35.7173 44.182C36.4493 44.182 37.0133 44.062 37.4093 43.822C37.8053 43.57 38.0033 43.216 38.0033 42.76C38.0033 42.46 37.8953 42.196 37.6793 41.968C37.4753 41.74 37.0913 41.566 36.5273 41.446L34.1153 40.906C33.0593 40.678 32.2433 40.306 31.6673 39.79C31.0913 39.274 30.8033 38.572 30.8033 37.684C30.8033 36.976 30.9953 36.34 31.3793 35.776C31.7633 35.212 32.3153 34.768 33.0353 34.444C33.7673 34.108 34.6433 33.94 35.6633 33.94ZM45.7366 46.18C45.1366 46.18 44.5966 46.072 44.1166 45.856C43.6366 45.64 43.2526 45.298 42.9646 44.83C42.6886 44.362 42.5506 43.744 42.5506 42.976V37H45.0166V42.382C45.0166 43.078 45.1606 43.564 45.4486 43.84C45.7366 44.104 46.1506 44.236 46.6906 44.236C47.2066 44.236 47.6626 44.05 48.0586 43.678C48.4666 43.294 48.6706 42.682 48.6706 41.842V37H51.1366V46H48.9406L48.8506 44.434C48.5506 45.022 48.1366 45.46 47.6086 45.748C47.0806 46.036 46.4566 46.18 45.7366 46.18ZM53.7315 46V37H55.9455L56.0355 38.62C56.3355 38.02 56.7435 37.57 57.2595 37.27C57.7875 36.97 58.3695 36.82 59.0055 36.82C59.6535 36.82 60.2355 36.97 60.7515 37.27C61.2795 37.558 61.6755 38.002 61.9395 38.602C62.2155 38.002 62.6415 37.558 63.2175 37.27C63.7935 36.97 64.3875 36.82 64.9995 36.82C65.5875 36.82 66.1215 36.94 66.6015 37.18C67.0935 37.42 67.4835 37.78 67.7715 38.26C68.0595 38.74 68.2035 39.352 68.2035 40.096V46H65.7375V40.582C65.7375 39.922 65.5875 39.454 65.2875 39.178C64.9995 38.902 64.6335 38.764 64.1895 38.764C63.6375 38.764 63.1695 38.968 62.7855 39.376C62.4015 39.772 62.2095 40.366 62.2095 41.158V46H59.7435V40.582C59.7435 39.922 59.5935 39.454 59.2935 39.178C59.0055 38.902 58.6335 38.764 58.1775 38.764C57.8655 38.764 57.5535 38.848 57.2415 39.016C56.9415 39.184 56.6895 39.448 56.4855 39.808C56.2935 40.168 56.1975 40.642 56.1975 41.23V46H53.7315ZM70.7472 46V37H72.9612L73.0512 38.62C73.3512 38.02 73.7592 37.57 74.2752 37.27C74.8032 36.97 75.3852 36.82 76.0212 36.82C76.6692 36.82 77.2512 36.97 77.7672 37.27C78.2952 37.558 78.6912 38.002 78.9552 38.602C79.2312 38.002 79.6572 37.558 80.2332 37.27C80.8092 36.97 81.4032 36.82 82.0152 36.82C82.6032 36.82 83.1372 36.94 83.6172 37.18C84.1092 37.42 84.4992 37.78 84.7872 38.26C85.0752 38.74 85.2192 39.352 85.2192 40.096V46H82.7532V40.582C82.7532 39.922 82.6032 39.454 82.3032 39.178C82.0152 38.902 81.6492 38.764 81.2052 38.764C80.6532 38.764 80.1852 38.968 79.8012 39.376C79.4172 39.772 79.2252 40.366 79.2252 41.158V46H76.7592V40.582C76.7592 39.922 76.6092 39.454 76.3092 39.178C76.0212 38.902 75.6492 38.764 75.1932 38.764C74.8812 38.764 74.5692 38.848 74.2572 39.016C73.9572 39.184 73.7052 39.448 73.5012 39.808C73.3092 40.168 73.2132 40.642 73.2132 41.23V46H70.7472ZM92.8928 40.258C92.8928 39.742 92.7428 39.34 92.4428 39.052C92.1548 38.764 91.7708 38.62 91.2908 38.62C90.8468 38.62 90.4568 38.734 90.1208 38.962C89.7848 39.19 89.5388 39.568 89.3828 40.096L87.2768 39.448C87.4808 38.656 87.9248 38.02 88.6088 37.54C89.3048 37.06 90.2348 36.82 91.3988 36.82C92.5748 36.82 93.5228 37.102 94.2428 37.666C94.9748 38.218 95.3408 39.046 95.3408 40.15V43.804C95.3408 44.26 95.5568 44.488 95.9888 44.488C96.1928 44.488 96.3848 44.458 96.5648 44.398L96.4208 45.928C96.1088 46.084 95.7188 46.162 95.2508 46.162C94.7348 46.162 94.2848 46.054 93.9008 45.838C93.5288 45.622 93.2768 45.298 93.1448 44.866C92.8568 45.298 92.4428 45.628 91.9028 45.856C91.3748 46.072 90.8288 46.18 90.2648 46.18C89.3528 46.18 88.6268 45.976 88.0868 45.568C87.5588 45.148 87.2948 44.542 87.2948 43.75C87.2948 43.078 87.5108 42.532 87.9428 42.112C88.3748 41.68 88.9928 41.386 89.7968 41.23L92.8928 40.6V40.258ZM89.7608 43.516C89.7608 43.816 89.8688 44.044 90.0848 44.2C90.3128 44.356 90.5828 44.434 90.8948 44.434C91.2428 44.434 91.5668 44.38 91.8668 44.272C92.1668 44.164 92.4128 43.984 92.6048 43.732C92.7968 43.468 92.8928 43.12 92.8928 42.688V42.13L91.0028 42.508C90.5948 42.592 90.2828 42.706 90.0668 42.85C89.8628 42.982 89.7608 43.204 89.7608 43.516ZM98.0987 46V37H100.241L100.403 38.764C100.631 38.152 100.973 37.678 101.429 37.342C101.897 36.994 102.485 36.82 103.193 36.82C103.613 36.82 103.937 36.886 104.165 37.018L103.877 39.088C103.757 39.052 103.607 39.022 103.427 38.998C103.259 38.962 103.037 38.944 102.761 38.944C102.389 38.944 102.035 39.034 101.699 39.214C101.375 39.382 101.105 39.646 100.889 40.006C100.673 40.354 100.565 40.798 100.565 41.338V46H98.0987ZM114.152 37L110.516 46.558C110.228 47.374 109.904 48.022 109.544 48.502C109.196 48.994 108.788 49.342 108.32 49.546C107.864 49.762 107.318 49.87 106.682 49.87C106.214 49.87 105.782 49.816 105.386 49.708C105.002 49.6 104.666 49.45 104.378 49.258L104.9 47.476C105.32 47.812 105.848 47.98 106.484 47.98C106.832 47.98 107.126 47.908 107.366 47.764C107.606 47.62 107.81 47.332 107.978 46.9L108.284 46.126L107.294 43.786L104.54 37H107.276L108.986 42.4L109.454 44.2L110.012 42.292L111.65 37H114.152Z" fill="white"/>
<g filter="url(#filter1_d)">
<path fill-rule="evenodd" clip-rule="evenodd" d="M348.999 64C348.999 59.5817 345.418 56 340.999 56H18C13.5817 56 10 59.5817 10 64V490.53V540.581V551C10 555.418 13.5817 559 18 559H340.999C345.418 559 348.999 555.418 348.999 551V540.581V490.53V64Z" fill="#04294F"/>
</g>
</g>
<defs>
<filter id="filter0_d" x="-0.000488281" y="0" width="359" height="565" filterUnits="userSpaceOnUse" color-interpolation-filters="sRGB">
<feFlood flood-opacity="0" result="BackgroundImageFix"/>
<feColorMatrix in="SourceAlpha" type="matrix" values="0 0 0 0 0 0 0 0 0 0 0 0 0 0 0 0 0 0 127 0"/>
<feOffset dy="-4"/>
<feGaussianBlur stdDeviation="5"/>
<feColorMatrix type="matrix" values="0 0 0 0 0.379167 0 0 0 0 0.379167 0 0 0 0 0.379167 0 0 0 0.42 0"/>
<feBlend mode="normal" in2="BackgroundImageFix" result="effect1_dropShadow"/>
<feBlend mode="normal" in="SourceGraphic" in2="effect1_dropShadow" result="shape"/>
</filter>
<filter id="filter1_d" x="0" y="50" width="358.999" height="523" filterUnits="userSpaceOnUse" color-interpolation-filters="sRGB">
<feFlood flood-opacity="0" result="BackgroundImageFix"/>
<feColorMatrix in="SourceAlpha" type="matrix" values="0 0 0 0 0 0 0 0 0 0 0 0 0 0 0 0 0 0 127 0"/>
<feOffset dy="4"/>
<feGaussianBlur stdDeviation="5"/>
<feColorMatrix type="matrix" values="0 0 0 0 0.0156863 0 0 0 0 0.160784 0 0 0 0 0.309804 0 0 0 0.26 0"/>
<feBlend mode="normal" in2="BackgroundImageFix" result="effect1_dropShadow"/>
<feBlend mode="normal" in="SourceGraphic" in2="effect1_dropShadow" result="shape"/>
</filter>
</defs>
</svg>
