<svg width="34" height="34" viewBox="0 0 34 34" fill="none" xmlns="http://www.w3.org/2000/svg">
<path fill-rule="evenodd" clip-rule="evenodd" d="M17 34C26.3888 34 34 26.3888 34 17C34 7.61116 26.3888 0 17 0C7.61116 0 0 7.61116 0 17C0 26.3888 7.61116 34 17 34ZM17 29.75C9.95837 29.75 4.25 24.0416 4.25 17C4.25 9.95837 9.95837 4.25 17 4.25C24.0416 4.25 29.75 9.95837 29.75 17C29.75 24.0416 24.0416 29.75 17 29.75ZM20.6276 12.1275L15.7552 16.9999L20.6276 21.8723L17.6224 24.8775L9.74477 16.9999L17.6224 9.12232L20.6276 12.1275Z" fill="#FFB400"/>
</svg>
