<svg width="25" height="36" viewBox="0 0 25 36" fill="none" xmlns="http://www.w3.org/2000/svg">
<path fill-rule="evenodd" clip-rule="evenodd" d="M19.6429 24.4712V28.12C19.6429 31.986 16.4449 35.12 12.5 35.12C8.55511 35.12 5.35714 31.986 5.35714 28.12V24.4712C5.35714 24.1295 5.23362 23.7567 4.94189 23.2658C4.75446 22.9505 4.50925 22.604 4.13929 22.1244C4.12912 22.1112 4.08313 22.0525 4.01476 21.9652C3.7677 21.6496 3.22827 20.9606 3.02911 20.697C1.0115 18.0264 0 15.6423 0 12.37C0 5.60451 5.59644 0.119995 12.5 0.119995C19.4036 0.119995 25 5.60451 25 12.37C25 15.7138 23.9747 18.1884 21.9743 20.854C21.7622 21.1365 21.2273 21.8177 20.9105 22.2212L20.9098 22.2221C20.7862 22.3795 20.696 22.4945 20.6712 22.5267C20.267 23.0537 20.0159 23.4274 19.8526 23.7518C19.7048 24.0454 19.6429 24.2723 19.6429 24.4712ZM16.1493 23.6389C16.2404 23.1548 16.4097 22.6798 16.6496 22.2034C16.9315 21.6434 17.2899 21.1099 17.8162 20.4238C17.8524 20.3766 17.9688 20.2283 18.1192 20.0367C18.4408 19.6269 18.9176 19.0193 19.097 18.7803C20.6839 16.6659 21.4284 14.8688 21.4284 12.37C21.4284 7.5375 17.431 3.61999 12.4999 3.61999C7.56875 3.61999 3.57129 7.5375 3.57129 12.37C3.57129 14.7825 4.29747 16.4941 5.89932 18.6144C6.07124 18.8419 6.55665 19.4622 6.81902 19.7974L6.81935 19.7978L6.81953 19.798C6.9085 19.9117 6.97172 19.9925 6.98821 20.0139C7.4369 20.5956 7.75433 21.044 8.02785 21.5042C8.45381 22.2209 8.73661 22.9195 8.85913 23.6439C9.97194 24.2985 11.1749 24.62 12.5 24.62C13.8284 24.62 15.0341 24.2968 16.1493 23.6389ZM16.0713 28.12V27.5293C14.9419 27.9221 13.7487 28.12 12.5 28.12C11.2511 28.12 10.0579 27.9221 8.92843 27.5292V28.12C8.92843 30.053 10.5274 31.62 12.4999 31.62C14.4723 31.62 16.0713 30.053 16.0713 28.12Z" fill="#FFB400"/>
</svg>
