<svg width="25" height="36" viewBox="0 0 25 36" fill="none" xmlns="http://www.w3.org/2000/svg">
<path fill-rule="evenodd" clip-rule="evenodd" d="M19.6429 24.4713V28.1201C19.6429 31.986 16.4449 35.1201 12.5 35.1201C8.55511 35.1201 5.35714 31.986 5.35714 28.1201V24.4713C5.35714 24.1296 5.23362 23.7567 4.94189 23.2659C4.75446 22.9505 4.50925 22.6041 4.13929 22.1245C4.12912 22.1113 4.08313 22.0525 4.01476 21.9652C3.7677 21.6497 3.22827 20.9607 3.02911 20.6971C1.0115 18.0264 0 15.6423 0 12.3701C0 5.60457 5.59644 0.120056 12.5 0.120056C19.4036 0.120056 25 5.60457 25 12.3701C25 15.7139 23.9747 18.1885 21.9743 20.854C21.7622 21.1366 21.2273 21.8178 20.9105 22.2213L20.9098 22.2222C20.7862 22.3796 20.696 22.4946 20.6712 22.5268C20.267 23.0538 20.0159 23.4275 19.8526 23.7519C19.7048 24.0455 19.6429 24.2724 19.6429 24.4713ZM16.1493 23.6389C16.2404 23.1548 16.4097 22.6799 16.6496 22.2035C16.9315 21.6435 17.2899 21.11 17.8162 20.4238C17.8524 20.3767 17.9688 20.2284 18.1192 20.0367C18.4408 19.627 18.9176 19.0194 19.097 18.7803C20.6839 16.6659 21.4284 14.8689 21.4284 12.3701C21.4284 7.53756 17.431 3.62005 12.4999 3.62005C7.56875 3.62005 3.57129 7.53756 3.57129 12.3701C3.57129 14.7825 4.29747 16.4941 5.89932 18.6144C6.07124 18.842 6.55665 19.4622 6.81902 19.7975L6.81935 19.7979L6.81953 19.7981C6.9085 19.9118 6.97172 19.9926 6.98821 20.0139C7.4369 20.5957 7.75433 21.0441 8.02785 21.5043C8.45381 22.221 8.73661 22.9196 8.85913 23.6439C9.97194 24.2985 11.1749 24.6201 12.5 24.6201C13.8284 24.6201 15.0341 24.2969 16.1493 23.6389ZM16.0713 28.1201V27.5293C14.9419 27.9222 13.7487 28.1201 12.5 28.1201C11.2511 28.1201 10.0579 27.9221 8.92843 27.5293V28.1201C8.92843 30.053 10.5274 31.6201 12.4999 31.6201C14.4723 31.6201 16.0713 30.053 16.0713 28.1201Z" fill="#FFB400"/>
</svg>
