<svg width="30" height="34" viewBox="0 0 30 34" fill="none" xmlns="http://www.w3.org/2000/svg">
<path fill-rule="evenodd" clip-rule="evenodd" d="M30 30.5825V18.8472H27V30.5825H3V3.75896H13.5V0.406021H3C1.34315 0.406021 0 1.90718 0 3.75896V30.5825C0 32.4343 1.34315 33.9354 3 33.9354H27C28.6569 33.9354 30 32.4343 30 30.5825ZM25.7671 1.61882C25.0796 0.844284 24.1381 0.406021 23.156 0.406021C22.175 0.406021 21.2346 0.843294 20.5431 1.62084L7.98972 15.6509C6.86798 16.7555 6.13264 18.3993 6.00485 20.1671L5.99998 25.557V27.2335H12.2019C13.9033 27.103 15.3885 26.2731 16.4362 24.9223L28.9185 10.9776C29.611 10.2036 30.0001 9.15383 30.0001 8.05924C30.0001 6.96466 29.611 5.9149 28.9185 5.14091L25.7671 1.61882ZM12.096 23.8847C12.8973 23.8213 13.6432 23.4045 14.2422 22.6387L23.335 12.4761L19.2036 7.85839L10.0442 18.0921C9.43643 18.6928 9.06046 19.5333 9 20.3021V23.8815L12.096 23.8847ZM21.3253 5.48788L25.4564 10.1053L26.7972 8.60668C26.9271 8.46149 27.0001 8.26457 27.0001 8.05924C27.0001 7.85391 26.9271 7.65699 26.7972 7.5118L23.6417 3.98505C23.5132 3.84035 23.3384 3.75896 23.156 3.75896C22.9736 3.75896 22.7988 3.84035 22.6704 3.98505L21.3253 5.48788Z" fill="#04294F"/>
</svg>
