<svg width="34" height="25" viewBox="0 0 34 25" fill="none" xmlns="http://www.w3.org/2000/svg">
<path fill-rule="evenodd" clip-rule="evenodd" d="M20.8333 0C18.112 0 15.797 1.73918 14.939 4.16667H0V8.33333H14.939C15.797 10.7608 18.112 12.5 20.8333 12.5C24.2851 12.5 27.0833 9.70178 27.0833 6.25C27.0833 2.79822 24.2851 0 20.8333 0ZM10.4167 12.5C7.69538 12.5 5.3803 14.2392 4.5223 16.6667H0V20.8333H4.5223C5.3803 23.2608 7.69538 25 10.4167 25C13.8684 25 16.6667 22.2018 16.6667 18.75C16.6667 15.2982 13.8684 12.5 10.4167 12.5ZM33.3333 20.8334H18.75V16.6668H33.3333V20.8334ZM12.5002 18.7501C12.5002 19.9007 11.5674 20.8334 10.4169 20.8334C9.26626 20.8334 8.33352 19.9007 8.33352 18.7501C8.33352 17.5995 9.26626 16.6668 10.4169 16.6668C11.5674 16.6668 12.5002 17.5995 12.5002 18.7501ZM33.3331 8.33343H29.1665V4.16676H33.3331V8.33343ZM22.9167 6.25009C22.9167 7.40069 21.9839 8.33343 20.8333 8.33343C19.6827 8.33343 18.75 7.40069 18.75 6.25009C18.75 5.0995 19.6827 4.16676 20.8333 4.16676C21.9839 4.16676 22.9167 5.0995 22.9167 6.25009Z" fill="white"/>
</svg>
