<svg width="30" height="30" viewBox="0 0 30 30" fill="none" xmlns="http://www.w3.org/2000/svg">
<path fill-rule="evenodd" clip-rule="evenodd" d="M30 27V16.5H27V27H3V3H13.5V0H3C1.34315 0 0 1.34315 0 3V27C0 28.6569 1.34315 30 3 30H27C28.6569 30 30 28.6569 30 27ZM25.7671 1.08513C25.0796 0.39213 24.1381 0 23.156 0C22.175 0 21.2346 0.391244 20.5431 1.08694L7.98972 13.6401C6.86798 14.6285 6.13264 16.0993 6.00485 17.681L5.99998 22.5035V24.0035H12.2019C13.9033 23.8868 15.3885 23.1442 16.4362 21.9356L28.9185 9.45875C29.611 8.76624 30.0001 7.82699 30.0001 6.84762C30.0001 5.86825 29.611 4.929 28.9185 4.23648L25.7671 1.08513ZM12.096 21.0072C12.8973 20.9505 13.6432 20.5776 14.2422 19.8924L23.335 10.7996L19.2036 6.66791L10.0442 15.8244C9.43643 16.3619 9.06046 17.1138 9 17.8017V21.0044L12.096 21.0072ZM21.3253 4.54693L25.4564 8.67827L26.7972 7.33743C26.9271 7.20753 27.0001 7.03133 27.0001 6.84762C27.0001 6.6639 26.9271 6.48771 26.7972 6.3578L23.6417 3.20229C23.5132 3.07282 23.3384 3 23.156 3C22.9736 3 22.7988 3.07282 22.6704 3.20229L21.3253 4.54693Z" fill="#FFB400"/>
</svg>
