<svg width="30" height="31" viewBox="0 0 30 31" fill="none" xmlns="http://www.w3.org/2000/svg">
<path fill-rule="evenodd" clip-rule="evenodd" d="M30 27.1201V16.6201H27V27.1201H3V3.12006H13.5V0.120056H3C1.34315 0.120056 0 1.4632 0 3.12006V27.1201C0 28.7769 1.34315 30.1201 3 30.1201H27C28.6569 30.1201 30 28.7769 30 27.1201ZM25.7671 1.20519C25.0796 0.512186 24.1381 0.120056 23.156 0.120056C22.175 0.120056 21.2346 0.5113 20.5431 1.207L7.98972 13.7602C6.86798 14.7486 6.13264 16.2193 6.00485 17.801L5.99998 22.6236V24.1236H12.2019C13.9033 24.0069 15.3885 23.2643 16.4362 22.0557L28.9185 9.57881C29.611 8.8863 30.0001 7.94704 30.0001 6.96768C30.0001 5.98831 29.611 5.04905 28.9185 4.35654L25.7671 1.20519ZM12.096 21.1273C12.8973 21.0706 13.6432 20.6976 14.2422 20.0125L23.335 10.9196L19.2036 6.78796L10.0442 15.9444C9.43643 16.4819 9.06046 17.2339 9 17.9218V21.1245L12.096 21.1273ZM21.3253 4.66699L25.4564 8.79833L26.7972 7.45749C26.9271 7.32758 27.0001 7.15139 27.0001 6.96768C27.0001 6.78396 26.9271 6.60777 26.7972 6.47786L23.6417 3.32234C23.5132 3.19288 23.3384 3.12006 23.156 3.12006C22.9736 3.12006 22.7988 3.19288 22.6704 3.32234L21.3253 4.66699Z" fill="#04294F"/>
</svg>
