<svg width="36" height="37" viewBox="0 0 36 37" fill="none" xmlns="http://www.w3.org/2000/svg">
<path fill-rule="evenodd" clip-rule="evenodd" d="M18 36.1201C8.05887 36.1201 0 28.0612 0 18.1201C0 8.17893 8.05887 0.120056 18 0.120056C27.9411 0.120056 36 8.17893 36 18.1201C36 28.0612 27.9411 36.1201 18 36.1201ZM30.1081 26.506C31.7595 24.1262 32.7272 21.2361 32.7272 18.1201C32.7272 9.98641 26.1336 3.39278 18 3.39278C9.86633 3.39278 3.27271 9.98641 3.27271 18.1201C3.27271 21.236 4.24037 24.1259 5.89158 26.5057C7.73331 24.0732 12.0608 23.0292 17.9997 23.0292C23.9389 23.0292 28.2665 24.0733 30.1081 26.506ZM27.7601 29.149C27.2814 27.4267 23.8407 26.3019 17.9997 26.3019C12.1591 26.3019 8.71852 27.4265 8.23937 29.1486C10.8379 31.4501 14.2558 32.8473 18 32.8473C21.744 32.8473 25.1617 31.4502 27.7601 29.149ZM18 8.30187C14.0386 8.30187 11.4546 11.1749 11.4546 14.8473C11.4546 20.4558 14.336 23.0291 18 23.0291C21.6296 23.0291 24.5455 20.5412 24.5455 15.1746C24.5455 11.4463 21.9505 8.30187 18 8.30187ZM14.7273 14.8473C14.7273 18.5607 16.0662 19.7564 18 19.7564C19.9272 19.7564 21.2727 18.6083 21.2727 15.1746C21.2727 13.1298 19.9893 11.5746 18 11.5746C15.928 11.5746 14.7273 12.9096 14.7273 14.8473Z" fill="#04294F"/>
</svg>
