<svg width="25" height="40" viewBox="0 0 25 40" fill="none" xmlns="http://www.w3.org/2000/svg">
<path fill-rule="evenodd" clip-rule="evenodd" d="M19.6429 27.3868V31.4648C19.6429 35.7857 16.4449 39.2884 12.5 39.2884C8.55511 39.2884 5.35714 35.7857 5.35714 31.4648V27.3868C5.35714 27.0049 5.23362 26.5882 4.94189 26.0396C4.75446 25.6871 4.50925 25.3 4.13929 24.7639C4.12916 24.7492 4.08354 24.6841 4.01565 24.5872L4.01478 24.5859C3.76774 24.2333 3.22828 23.4632 3.02911 23.1686C1.0115 20.1838 0 17.5191 0 13.8619C0 6.30048 5.59644 0.170731 12.5 0.170731C19.4036 0.170731 25 6.30048 25 13.8619C25 17.5991 23.9747 20.3649 21.9743 23.344C21.7623 23.6596 21.2278 24.4205 20.9109 24.8715L20.9106 24.872C20.7866 25.0485 20.696 25.1775 20.6712 25.2136C20.267 25.8025 20.0159 26.2202 19.8526 26.5828C19.7048 26.9109 19.6429 27.1645 19.6429 27.3868ZM16.1493 26.4565C16.2404 25.9155 16.4098 25.3847 16.6496 24.8522C16.9315 24.2263 17.2899 23.6301 17.8162 22.8632C17.8524 22.8105 17.9687 22.6448 18.1191 22.4307C18.4407 21.9727 18.9176 21.2935 19.097 21.0263C20.6839 18.6632 21.4284 16.6547 21.4284 13.8619C21.4284 8.46088 17.431 4.08249 12.4999 4.08249C7.56875 4.08249 3.57129 8.46088 3.57129 13.8619C3.57129 16.5582 4.29747 18.4712 5.89932 20.8409C6.07132 21.0954 6.5571 21.7891 6.81939 22.1636C6.90843 22.2908 6.97171 22.3812 6.98821 22.4051C7.4369 23.0552 7.75433 23.5564 8.02785 24.0708C8.45381 24.8718 8.73662 25.6525 8.85913 26.4621C9.97194 27.1938 11.1749 27.5531 12.5 27.5531C13.8284 27.5531 15.0341 27.1919 16.1493 26.4565ZM16.0713 31.4648V30.8046C14.9419 31.2437 13.7487 31.4648 12.5 31.4648C11.2511 31.4648 10.0579 31.2436 8.92843 30.8046V31.4648C8.92843 33.6252 10.5274 35.3766 12.4999 35.3766C14.4723 35.3766 16.0713 33.6252 16.0713 31.4648Z" fill="#FFB400"/>
</svg>
