<svg width="30" height="31" viewBox="0 0 30 31" fill="none" xmlns="http://www.w3.org/2000/svg">
<path fill-rule="evenodd" clip-rule="evenodd" d="M30 27.12V16.62H27V27.12H3V3.12H13.5V0.119996H3C1.34315 0.119996 0 1.46314 0 3.12V27.12C0 28.7769 1.34315 30.12 3 30.12H27C28.6569 30.12 30 28.7769 30 27.12ZM25.7671 1.20513C25.0796 0.512125 24.1381 0.119996 23.156 0.119996C22.175 0.119996 21.2346 0.51124 20.5431 1.20694L7.98972 13.7601C6.86798 14.7485 6.13264 16.2193 6.00485 17.8009L5.99998 22.6235V24.1235H12.2019C13.9033 24.0068 15.3885 23.2642 16.4362 22.0556L28.9185 9.57875C29.611 8.88624 30.0001 7.94698 30.0001 6.96762C30.0001 5.98825 29.611 5.04899 28.9185 4.35648L25.7671 1.20513ZM12.096 21.1272C12.8973 21.0705 13.6432 20.6976 14.2422 20.0124L23.335 10.9196L19.2036 6.7879L10.0442 15.9444C9.43643 16.4819 9.06046 17.2338 9 17.9217V21.1244L12.096 21.1272ZM21.3253 4.66693L25.4564 8.79827L26.7972 7.45743C26.9271 7.32752 27.0001 7.15133 27.0001 6.96762C27.0001 6.7839 26.9271 6.60771 26.7972 6.4778L23.6417 3.32228C23.5132 3.19281 23.3384 3.12 23.156 3.12C22.9736 3.12 22.7988 3.19281 22.6704 3.32228L21.3253 4.66693Z" fill="#04294F"/>
</svg>
