<svg width="36" height="36" viewBox="0 0 36 36" fill="none" xmlns="http://www.w3.org/2000/svg">
<path fill-rule="evenodd" clip-rule="evenodd" d="M18 36C8.05887 36 0 27.9411 0 18C0 8.05887 8.05887 0 18 0C27.9411 0 36 8.05887 36 18C36 27.9411 27.9411 36 18 36ZM30.1081 26.386C31.7595 24.0061 32.7272 21.1161 32.7272 18C32.7272 9.86635 26.1336 3.27273 18 3.27273C9.86633 3.27273 3.27271 9.86635 3.27271 18C3.27271 21.1159 4.24037 24.0058 5.89158 26.3856C7.73331 23.9531 12.0608 22.9091 17.9997 22.9091C23.9389 22.9091 28.2665 23.9533 30.1081 26.386ZM27.7601 29.0289C27.2814 27.3067 23.8407 26.1818 17.9997 26.1818C12.1591 26.1818 8.71852 27.3065 8.23937 29.0285C10.8379 31.33 14.2558 32.7273 18 32.7273C21.744 32.7273 25.1617 31.3302 27.7601 29.0289ZM18 8.18182C14.0386 8.18182 11.4546 11.0549 11.4546 14.7273C11.4546 20.3357 14.336 22.9091 18 22.9091C21.6296 22.9091 24.5455 20.4212 24.5455 15.0545C24.5455 11.3262 21.9505 8.18182 18 8.18182ZM14.7273 14.7273C14.7273 18.4406 16.0662 19.6364 18 19.6364C19.9272 19.6364 21.2727 18.4883 21.2727 15.0545C21.2727 13.0098 19.9893 11.4545 18 11.4545C15.928 11.4545 14.7273 12.7895 14.7273 14.7273Z" fill="#04294F"/>
</svg>
