<svg width="25" height="35" viewBox="0 0 25 35" fill="none" xmlns="http://www.w3.org/2000/svg">
<path fill-rule="evenodd" clip-rule="evenodd" d="M19.6429 24.3512V28C19.6429 31.866 16.4449 35 12.5 35C8.55511 35 5.35714 31.866 5.35714 28V24.3512C5.35714 24.0095 5.23362 23.6367 4.94189 23.1458C4.75446 22.8305 4.50925 22.484 4.13929 22.0044C4.12912 21.9912 4.08313 21.9325 4.01476 21.8452C3.7677 21.5296 3.22827 20.8406 3.02911 20.577C1.0115 17.9064 0 15.5223 0 12.25C0 5.48451 5.59644 0 12.5 0C19.4036 0 25 5.48451 25 12.25C25 15.5938 23.9747 18.0684 21.9743 20.734C21.7622 21.0165 21.2273 21.6977 20.9105 22.1012L20.9098 22.1021C20.7862 22.2595 20.696 22.3745 20.6712 22.4067C20.267 22.9337 20.0159 23.3074 19.8526 23.6318C19.7048 23.9254 19.6429 24.1523 19.6429 24.3512ZM16.1493 23.5189C16.2404 23.0348 16.4097 22.5598 16.6496 22.0834C16.9315 21.5234 17.2899 20.99 17.8162 20.3038C17.8524 20.2566 17.9688 20.1083 18.1192 19.9167C18.4408 19.5069 18.9176 18.8993 19.097 18.6603C20.6839 16.5459 21.4284 14.7488 21.4284 12.25C21.4284 7.41751 17.431 3.5 12.4999 3.5C7.56875 3.5 3.57129 7.41751 3.57129 12.25C3.57129 14.6625 4.29747 16.3741 5.89932 18.4944C6.07124 18.7219 6.55665 19.3422 6.81902 19.6774L6.81935 19.6778L6.81953 19.678C6.9085 19.7917 6.97172 19.8725 6.98821 19.8939C7.4369 20.4756 7.75433 20.9241 8.02785 21.3842C8.45381 22.1009 8.73661 22.7995 8.85913 23.5239C9.97194 24.1785 11.1749 24.5 12.5 24.5C13.8284 24.5 15.0341 24.1769 16.1493 23.5189ZM16.0713 28V27.4093C14.9419 27.8021 13.7487 28 12.5 28C11.2511 28 10.0579 27.8021 8.92843 27.4092V28C8.92843 29.933 10.5274 31.5 12.4999 31.5C14.4723 31.5 16.0713 29.933 16.0713 28Z" fill="#FFB400"/>
</svg>
