<svg width="36" height="37" viewBox="0 0 36 37" fill="none" xmlns="http://www.w3.org/2000/svg">
<path fill-rule="evenodd" clip-rule="evenodd" d="M18 36.12C8.05887 36.12 0 28.0611 0 18.12C0 8.17887 8.05887 0.119995 18 0.119995C27.9411 0.119995 36 8.17887 36 18.12C36 28.0611 27.9411 36.12 18 36.12ZM30.1081 26.506C31.7595 24.1261 32.7272 21.2361 32.7272 18.12C32.7272 9.98635 26.1336 3.39272 18 3.39272C9.86633 3.39272 3.27271 9.98635 3.27271 18.12C3.27271 21.2359 4.24037 24.1258 5.89158 26.5056C7.73331 24.0731 12.0608 23.0291 17.9997 23.0291C23.9389 23.0291 28.2665 24.0732 30.1081 26.506ZM27.7601 29.1489C27.2814 27.4267 23.8407 26.3018 17.9997 26.3018C12.1591 26.3018 8.71852 27.4265 8.23937 29.1485C10.8379 31.45 14.2558 32.8473 18 32.8473C21.744 32.8473 25.1617 31.4502 27.7601 29.1489ZM18 8.30181C14.0386 8.30181 11.4546 11.1749 11.4546 14.8473C11.4546 20.4557 14.336 23.0291 18 23.0291C21.6296 23.0291 24.5455 20.5412 24.5455 15.1745C24.5455 11.4462 21.9505 8.30181 18 8.30181ZM14.7273 14.8473C14.7273 18.5606 16.0662 19.7564 18 19.7564C19.9272 19.7564 21.2727 18.6083 21.2727 15.1745C21.2727 13.1298 19.9893 11.5745 18 11.5745C15.928 11.5745 14.7273 12.9095 14.7273 14.8473Z" fill="#04294F"/>
</svg>
