<svg width="36" height="41" viewBox="0 0 36 41" fill="none" xmlns="http://www.w3.org/2000/svg">
<path fill-rule="evenodd" clip-rule="evenodd" d="M18 40.2884C8.05887 40.2884 0 31.2814 0 20.1707C0 9.06006 8.05887 0.0530853 18 0.0530853C27.9411 0.0530853 36 9.06006 36 20.1707C36 31.2814 27.9411 40.2884 18 40.2884ZM30.1081 29.5433C31.7595 26.8834 32.7272 23.6534 32.7272 20.1707C32.7272 11.0802 26.1336 3.71083 18 3.71083C9.86633 3.71083 3.27271 11.0802 3.27271 20.1707C3.27271 23.6532 4.24037 26.8831 5.89158 29.5429C7.73331 26.8242 12.0608 25.6574 17.9997 25.6574C23.9389 25.6574 28.2665 26.8244 30.1081 29.5433ZM27.7602 32.4971C27.2814 30.5723 23.8407 29.3151 17.9997 29.3151C12.1591 29.3151 8.71851 30.5721 8.23937 32.4967C10.8379 35.069 14.2558 36.6306 18 36.6306C21.744 36.6306 25.1617 35.0692 27.7602 32.4971ZM18 9.19746C14.0386 9.19746 11.4546 12.4085 11.4546 16.513C11.4546 22.7812 14.336 25.6574 18 25.6574C21.6296 25.6574 24.5455 22.8768 24.5455 16.8787C24.5455 12.7118 21.9505 9.19746 18 9.19746ZM14.7273 16.513C14.7273 20.6632 16.0662 21.9996 18 21.9996C19.9272 21.9996 21.2727 20.7165 21.2727 16.8788C21.2727 14.5934 19.9893 12.8552 18 12.8552C15.928 12.8552 14.7273 14.3473 14.7273 16.513Z" fill="#04294F"/>
</svg>
