<svg width="320" height="319" viewBox="0 0 320 319" fill="none" xmlns="http://www.w3.org/2000/svg">
<path d="M160 0L171.957 81.0936L207.294 7.12597L194.808 88.14L250.384 27.8706L214.567 101.607L285.444 60.3907L229.477 120.297L309.358 101.797L238.214 142.55L320 148.409L240 166.389L316.426 196.087L234.679 189.696L298.953 240.594L222.723 210.399L269.133 277.974L205.192 226.658L229.616 304.908L183.647 237.031L183.914 319L160 240.594L136.086 319L136.354 237.031L90.3841 304.908L114.808 226.658L50.8673 277.974L97.2783 210.399L21.0475 240.594L85.3214 189.696L3.57409 196.087L80.0001 166.389L0 148.409L81.7872 142.55L10.6425 101.797L90.5239 120.297L34.5563 60.3907L105.433 101.607L69.6162 27.8706L125.192 88.14L112.707 7.12597L148.044 81.0936L160 0Z" fill="#FFB400"/>
</svg>
